Coordinates
version=1
nRows=27
nColumns=34
inDegrees=no

Units are S.I. units (second, meters, Newtons, ...)
If the header above contains a line with 'inDegrees', this indicates whether rotational values are in degrees (yes) or radians (no).

endheader
time	pelvis_tilt	pelvis_list	pelvis_rotation	pelvis_tx	pelvis_ty	pelvis_tz	hip_flexion_r	hip_adduction_r	hip_rotation_r	knee_angle_r	ankle_angle_r	subtalar_angle_r	mtp_angle_r	hip_flexion_l	hip_adduction_l	hip_rotation_l	knee_angle_l	ankle_angle_l	subtalar_angle_l	mtp_angle_l	lumbar_extension	lumbar_bending	lumbar_rotation	arm_flex_r	arm_add_r	arm_rot_r	elbow_flex_r	pro_sup_r	arm_flex_l	arm_add_l	arm_rot_l	elbow_flex_l	pro_sup_l
0.48	-0.101488	-0.133523	0.0414209	0.425446	1.02947	-0.127461	-0.0465823	0.206421	-0.11204	0.144296	0.359373	0.132598	-0.000208737	0.620524	-0.166193	-0.109425	0.308293	-0.0434113	0.0334732	-0.00024767	-0.0861449	-0.00545014	-0.104991	-0.232951	-0.146436	-0.341895	0.769282	1.66881	-0.397024	-0.116857	-0.236748	0.662738	1.49086
0.49	-0.102572	-0.129612	0.0408525	0.437261	1.02702	-0.126425	-0.05576	0.203064	-0.116304	0.151352	0.376028	0.141788	-0.000208739	0.613255	-0.160577	-0.103955	0.245756	-0.066273	0.0647354	-0.000247558	-0.0874983	-0.0197592	-0.107034	-0.239402	-0.147165	-0.338192	0.778654	1.67165	-0.410867	-0.117865	-0.241222	0.650702	1.48856
0.5	-0.103669	-0.125253	0.0395696	0.449216	1.02455	-0.125417	-0.0641305	0.198878	-0.120404	0.16024	0.392677	0.151057	-0.000208741	0.60575	-0.154995	-0.0936142	0.187864	-0.0800522	0.0951276	-0.000247445	-0.0887226	-0.0345558	-0.108549	-0.246014	-0.147861	-0.334654	0.788123	1.67462	-0.424734	-0.118885	-0.245553	0.640652	1.48779
0.51	-0.104595	-0.120479	0.0375936	0.461315	1.02209	-0.124451	-0.0718985	0.193929	-0.12401	0.170906	0.408882	0.159895	-0.000208743	0.598284	-0.149674	-0.0789571	0.136443	-0.08363	0.123081	-0.000247333	-0.0900132	-0.0497261	-0.1095	-0.252686	-0.148437	-0.331596	0.797577	1.67782	-0.438532	-0.119839	-0.249957	0.632657	1.48802
0.52	-0.10518	-0.115322	0.0349777	0.473559	1.01968	-0.123543	-0.0792748	0.188262	-0.126854	0.183242	0.424196	0.167851	-0.000208745	0.59119	-0.144773	-0.0612231	0.0932222	-0.077023	0.147259	-0.000247221	-0.0915445	-0.0651722	-0.109873	-0.259334	-0.148796	-0.329336	0.806896	1.68136	-0.452127	-0.120675	-0.254595	0.62667	1.48864
0.53	-0.105294	-0.109786	0.0317989	0.48595	1.01737	-0.122705	-0.0864449	0.181888	-0.128764	0.197099	0.438196	0.17458	-0.000208747	0.584804	-0.140328	-0.0421413	0.0595964	-0.0615191	0.166626	-0.000247109	-0.093438	-0.0808373	-0.109677	-0.265901	-0.148845	-0.328148	0.815946	1.68533	-0.465362	-0.121367	-0.259562	0.622516	1.48907
0.54	-0.104859	-0.103843	0.0281507	0.498478	1.01519	-0.121942	-0.0935541	0.174767	-0.129691	0.212297	0.450496	0.179876	-0.000208748	0.579404	-0.136237	-0.0236065	0.0364099	-0.0396053	0.180434	-0.000246997	-0.0957464	-0.0967195	-0.108953	-0.272351	-0.148505	-0.328216	0.82458	1.68976	-0.47807	-0.121914	-0.264884	0.619902	1.48882
0.55	-0.10386	-0.0974358	0.0241383	0.511145	1.01314	-0.121262	-0.100706	0.166816	-0.129707	0.228633	0.460752	0.183679	-0.00020875	0.575148	-0.13227	-0.00731828	0.0238207	-0.0146641	0.18818	-0.000246885	-0.0984562	-0.112869	-0.107773	-0.278669	-0.147722	-0.329596	0.832643	1.69463	-0.490095	-0.122333	-0.270524	0.618435	1.48755
0.56	-0.102325	-0.0904675	0.0198819	0.523964	1.01129	-0.120681	-0.107962	0.157944	-0.128991	0.245886	0.468655	0.186049	-0.000208752	0.572049	-0.128134	0.00551107	0.0212992	0.00953053	0.189594	-0.000246773	-0.101493	-0.129358	-0.106248	-0.284856	-0.146479	-0.332191	0.839976	1.69979	-0.501311	-0.122652	-0.27639	0.61766	1.48512
0.57	-0.100313	-0.0828569	0.0155123	0.536943	1.00966	-0.120213	-0.115349	0.148065	-0.127799	0.26384	0.473908	0.187125	-0.000208754	0.569979	-0.123517	0.0143008	0.0277764	0.0294274	0.184684	-0.000246661	-0.104746	-0.146266	-0.104529	-0.290916	-0.144797	-0.335747	0.846428	1.70505	-0.511627	-0.122903	-0.282355	0.617105	1.48152
0.58	-0.0978942	-0.0745468	0.0111739	0.550091	1.00827	-0.11987	-0.122858	0.137131	-0.126422	0.282308	0.476219	0.187062	-0.000208757	0.568708	-0.118154	0.0190859	0.0418104	0.0422786	0.173815	-0.000246549	-0.108094	-0.163652	-0.10281	-0.296845	-0.142738	-0.339876	0.851854	1.71011	-0.520988	-0.123121	-0.288273	0.616329	1.47687
0.59	-0.0951404	-0.0655225	0.00701925	0.563413	1.00713	-0.119664	-0.13043	0.125142	-0.125138	0.301177	0.475285	0.185961	-0.000208759	0.567952	-0.111866	0.0203747	0.0617492	0.0465599	0.157782	-0.000246437	-0.111426	-0.181528	-0.101309	-0.302621	-0.140395	-0.344089	0.856123	1.71469	-0.529364	-0.123345	-0.294003	0.614971	1.47133
0.6	-0.0921177	-0.0558236	0.00319951	0.576906	1.00627	-0.119603	-0.137933	0.112164	-0.124166	0.320449	0.470793	0.183806	-0.000208761	0.567427	-0.104582	0.0189307	0.0859279	0.0421574	0.137817	-0.000246325	-0.114654	-0.199847	-0.100256	-0.30819	-0.13788	-0.347862	0.859122	1.71848	-0.53674	-0.123615	-0.299421	0.61278	1.46507
0.61	-0.088893	-0.0455506	-0.000152144	0.590556	1.00569	-0.119695	-0.145134	0.0983214	-0.123637	0.340283	0.462431	0.180429	-0.000208763	0.566895	-0.096349	0.0155555	0.112836	0.0302858	0.115511	-0.000246214	-0.117718	-0.218487	-0.0998571	-0.313474	-0.135314	-0.350697	0.86076	1.72125	-0.543095	-0.123974	-0.304422	0.609638	1.45828
0.62	-0.0855562	-0.0348627	-0.00294206	0.604336	1.00541	-0.11994	-0.151689	0.0837964	-0.123574	0.36102	0.449893	0.175498	-0.000208765	0.566174	-0.0873148	0.0109357	0.141212	0.013168	0.0926266	-0.000246102	-0.120581	-0.237253	-0.100264	-0.318374	-0.13281	-0.352183	0.86099	1.72286	-0.54839	-0.124474	-0.308924	0.605552	1.45116
0.63	-0.0822416	-0.0239508	-0.00513167	0.618208	1.00543	-0.120336	-0.157132	0.0688103	-0.123888	0.383174	0.4329	0.168546	-0.000208767	0.56512	-0.0777116	0.00558519	0.170046	-0.00644197	0.070833	-0.00024599	-0.123222	-0.25588	-0.101537	-0.32279	-0.130474	-0.352042	0.859816	1.72331	-0.55256	-0.125172	-0.312857	0.600643	1.44395
0.64	-0.0790751	-0.0130244	-0.00675295	0.632124	1.00576	-0.120877	-0.160873	0.0536042	-0.124386	0.407401	0.411213	0.159018	-0.000208769	0.563629	-0.0678165	-0.00014162	0.198525	-0.0257747	0.0514481	-0.000245878	-0.12559	-0.274053	-0.103621	-0.326634	-0.128392	-0.350155	0.857314	1.72271	-0.55551	-0.126123	-0.316157	0.595118	1.43696
0.65	-0.0761951	-0.00230473	-0.00792004	0.646029	1.00637	-0.121558	-0.162231	0.0384146	-0.124797	0.434426	0.384646	0.146337	-0.000208771	0.561609	-0.057909	-0.00600076	0.225957	-0.0424866	0.0352626	-0.000245766	-0.127595	-0.29144	-0.106342	-0.329854	-0.126634	-0.346555	0.853639	1.7213	-0.557124	-0.127384	-0.318758	0.589234	1.43054
0.66	-0.0737602	0.00800122	-0.00882178	0.659868	1.00727	-0.122366	-0.160488	0.0234571	-0.124793	0.464959	0.35308	0.129978	-0.000208773	0.558982	-0.0482387	-0.0118099	0.251721	-0.054947	0.0224878	-0.000245655	-0.129101	-0.307722	-0.109416	-0.332439	-0.125259	-0.341402	0.849022	1.71936	-0.557281	-0.128998	-0.320592	0.583269	1.42511
0.67	-0.0719408	0.0177227	-0.00970025	0.673582	1.00841	-0.12329	-0.154957	0.00891298	-0.124035	0.499596	0.316494	0.109531	-0.000208775	0.555689	-0.0389994	-0.0174111	0.275253	-0.0623463	0.0128138	-0.000245543	-0.129931	-0.322619	-0.112487	-0.334421	-0.124311	-0.334944	0.843763	1.71723	-0.55587	-0.130997	-0.321584	0.577496	1.42106
0.68	-0.0708979	0.0267441	-0.0108165	0.687118	1.00977	-0.124316	-0.145069	-0.00507862	-0.122217	0.538719	0.275004	0.0847562	-0.000208777	0.551709	-0.0303136	-0.0226497	0.29608	-0.0646406	0.00554689	-0.000245431	-0.129893	-0.335913	-0.115176	-0.335871	-0.123831	-0.327466	0.838207	1.71519	-0.552808	-0.133398	-0.321653	0.572165	1.41871
0.69	-0.0707581	0.0350142	-0.0124101	0.700432	1.01129	-0.125433	-0.130452	-0.0184237	-0.119122	0.582431	0.228922	0.0556201	-0.000208779	0.547058	-0.0222254	-0.0273677	0.313857	-0.0623805	-0.00021552	-0.00024532	-0.128823	-0.347463	-0.117141	-0.336882	-0.123854	-0.319249	0.832718	1.71347	-0.548052	-0.1362	-0.320716	0.567494	1.41823
0.7	-0.0715856	0.0425416	-0.0146605	0.713489	1.01294	-0.12663	-0.111002	-0.0310728	-0.114672	0.63051	0.178822	0.0223016	-0.000208782	0.541785	-0.0147034	-0.0314064	0.32842	-0.0564838	-0.00541187	-0.000245208	-0.12663	-0.357209	-0.118133	-0.337556	-0.124403	-0.31054	0.827649	1.71221	-0.541609	-0.139394	-0.318692	0.563663	1.41963
0.71	-0.0733568	0.0493807	-0.0176572	0.726264	1.01466	-0.127902	-0.0869219	-0.0430147	-0.108948	0.682408	0.125589	-0.0148253	-0.000208784	0.535949	-0.0076547	-0.0346165	0.339798	-0.0480084	-0.0108702	-0.000245097	-0.123332	-0.365168	-0.118034	-0.337985	-0.12549	-0.301542	0.82331	1.71146	-0.533528	-0.142965	-0.315512	0.56082	1.42275
0.72	-0.0759502	0.0556131	-0.0213874	0.738749	1.01643	-0.129247	-0.0587106	-0.054263	-0.102199	0.737287	0.0704422	-0.0552295	-0.000208786	0.529598	-0.000949613	-0.0368749	0.348201	-0.0379657	-0.0172014	-0.000244985	-0.11907	-0.37142	-0.116874	-0.338242	-0.1271	-0.292421	0.819937	1.71119	-0.523898	-0.146898	-0.311133	0.559079	1.42728
0.73	-0.0791575	0.0613253	-0.0257439	0.750948	1.01821	-0.130663	-0.0271145	-0.0648378	-0.0947993	0.794088	0.0149227	-0.0982678	-0.000208788	0.522751	0.00554627	-0.0381075	0.35398	-0.0271959	-0.0247379	-0.000244874	-0.114094	-0.376083	-0.114809	-0.338372	-0.129186	-0.283329	0.817671	1.71132	-0.512833	-0.151187	-0.30555	0.558523	1.43287
0.74	-0.0827148	0.0665869	-0.0305516	0.762874	1.02	-0.132148	0.0069641	-0.0747439	-0.087193	0.851617	-0.039174	-0.143219	-0.00020879	0.51539	0.0119386	-0.0383117	0.357561	-0.0163075	-0.0335159	-0.000244762	-0.108726	-0.379292	-0.112082	-0.338386	-0.131662	-0.274424	0.816549	1.71173	-0.500456	-0.155831	-0.298808	0.559207	1.43917
